<?xml version="1.0" encoding="UTF-8"?>
<svg xmlns="http://www.w3.org/2000/svg" xmlns:xlink="http://www.w3.org/1999/xlink" viewBox="0 0 1246.99 295.8">
  <defs>
    <linearGradient id="trackerGradient" x1="700" y1="273.42" x2="700" y2="183" gradientUnits="userSpaceOnUse">
      <stop offset="0" stop-color="#56C3BA"/>
      <stop offset="1" stop-color="#59C9F4"/>
    </linearGradient>
  </defs>
  <g transform="scale(0.320647)">
<defs>
    <style>
      .cls-1 {
        fill: url(#linear-gradient-2);
      }

      .cls-2 {
        fill: #fff;
      }

      .cls-3 {
        fill: url(#linear-gradient-4);
      }

      .cls-4 {
        fill: url(#linear-gradient-3);
      }

      .cls-5 {
        fill: url(#linear-gradient-5);
      }

      .cls-6 {
        fill: url(#linear-gradient-8);
      }

      .cls-7 {
        fill: #07223c;
      }

      .cls-8 {
        fill: url(#linear-gradient-7);
      }

      .cls-9 {
        fill: url(#linear-gradient-6);
      }

      .cls-10 {
        fill: url(#linear-gradient);
      }
    </style>
    <linearGradient id="linear-gradient" x1="461.26" y1="918.11" x2="461.26" y2="-23.52" gradientUnits="userSpaceOnUse">
      <stop offset="0" stop-color="#56c3ba"/>
      <stop offset="1" stop-color="#59c9f4"/>
    </linearGradient>
    <linearGradient id="linear-gradient-2" x1="302.33" y1="918.11" x2="302.33" y2="-23.52" xlink:href="#linear-gradient"/>
    <linearGradient id="linear-gradient-3" x1="624.35" y1="918.11" x2="624.35" y2="-23.52" xlink:href="#linear-gradient"/>
    <linearGradient id="linear-gradient-4" x1="433.11" y1="918.11" x2="433.11" y2="-23.52" xlink:href="#linear-gradient"/>
    <linearGradient id="linear-gradient-5" x1="461.25" y1="918.11" x2="461.25" y2="-23.52" xlink:href="#linear-gradient"/>
    <linearGradient id="linear-gradient-6" x1="461.25" y1="918.11" x2="461.25" y2="-23.52" xlink:href="#linear-gradient"/>
    <linearGradient id="linear-gradient-7" x1="80.3" y1="918.11" x2="80.3" y2="-23.52" xlink:href="#linear-gradient"/>
    <linearGradient id="linear-gradient-8" x1="842.21" y1="918.11" x2="842.21" y2="-23.52" xlink:href="#linear-gradient"/>
  </defs>
  <polygon class="cls-7" points="762.61 287.21 762.61 635.18 461.26 809.17 159.91 635.18 159.91 287.21 461.26 113.23 762.61 287.21"/>
  <g>
    <path class="cls-2" d="M384.92,303.91c-20.56,0-37.22,16.67-37.22,37.22s16.67,37.22,37.22,37.22,37.22-16.67,37.22-37.22-16.67-37.22-37.22-37.22h0Z"/>
    <path class="cls-2" d="M549.9,303.91c-20.56,0-37.22,16.67-37.22,37.22s16.67,37.22,37.22,37.22,37.22-16.67,37.22-37.22-16.67-37.22-37.22-37.22h0Z"/>
    <rect class="cls-2" x="384.92" y="331.9" width="164.98" height="18.47"/>
    <path class="cls-2" d="M384.92,539.66c-20.56,0-37.22,16.67-37.22,37.22s16.67,37.22,37.22,37.22,37.22-16.67,37.22-37.22-16.67-37.22-37.22-37.22h0Z"/>
    <path class="cls-2" d="M549.9,539.66c-20.56,0-37.22,16.67-37.22,37.22s16.67,37.22,37.22,37.22,37.22-16.67,37.22-37.22-16.67-37.22-37.22-37.22h0Z"/>
    <rect class="cls-2" x="384.92" y="567.65" width="164.98" height="18.47"/>
    <g>
      <path class="cls-10" d="M461.26,113.23l-301.35,173.98v347.97l301.35,173.99,301.35-173.99v-347.97L461.26,113.23ZM721.57,611.49l-260.31,150.28-260.31-150.28v-300.58l260.31-150.29,260.31,150.29v300.58Z"/>
      <path class="cls-1" d="M302.33,423.97c-20.56,0-37.22,16.67-37.22,37.22s16.67,37.22,37.22,37.22,37.22-16.67,37.22-37.22-16.67-37.22-37.22-37.22h0Z"/>
      <path class="cls-4" d="M624.35,423.97c-20.56,0-37.22,16.67-37.22,37.22s16.67,37.22,37.22,37.22,37.22-16.67,37.22-37.22-16.67-37.22-37.22-37.22h0Z"/>
      <path class="cls-3" d="M549.9,470.43h-233.57c-5.1,0-9.23-4.13-9.23-9.23s4.13-9.23,9.23-9.23h233.57c5.1,0,9.23,4.13,9.23,9.23s-4.13,9.23-9.23,9.23Z"/>
      <path class="cls-5" d="M461.25,922.51h0c-11.33,0-20.52-9.19-20.52-20.52v-140.08h41.04v140.08c0,11.33-9.19,20.52-20.52,20.52Z"/>
      <path class="cls-9" d="M481.78,160.6h-41.04V20.52c0-11.33,9.19-20.52,20.52-20.52h0c11.33,0,20.52,9.19,20.52,20.52v140.08Z"/>
      <path class="cls-8" d="M160.6,481.78H20.52c-11.33,0-20.52-9.19-20.52-20.52h0c0-11.33,9.19-20.52,20.52-20.52h140.08v41.04Z"/>
      <path class="cls-6" d="M901.99,481.78h-140.08v-41.04h140.08c11.33,0,20.52,9.19,20.52,20.52h0c0,11.33-9.19,20.52-20.52,20.52Z"/>
    </g>
  </g>
  </g>
  <g fill="#FFFFFF">
      <path d="M342.22,140.49V22.55h83.46v22.1h-58.35v24.93h57.11v22.1h-57.11v48.8h-25.11Z"/>
      <path d="M446.37,81.61c0-35.54,25.99-61,61.53-61s61.71,25.46,61.71,61-25.99,61-61.71,61-61.53-25.46-61.53-61ZM543.79,81.61c0-22.1-14.14-38.72-35.89-38.72s-35.72,16.62-35.72,38.72,13.97,38.72,35.72,38.72,35.89-16.8,35.89-38.72Z"/>
      <path d="M662.79,140.49l-23.16-41.9h-18.39v41.9h-25.11V22.55h55.17c24.58,0,39.61,16.09,39.61,38.02s-13.08,32-25.81,35.01l26.52,44.91h-28.82ZM665.27,60.57c0-9.9-7.6-15.91-17.68-15.91h-26.35v31.83h26.35c10.08,0,17.68-6.01,17.68-15.91Z"/>
      <path d="M718.67,140.49V22.55h83.46v22.1h-58.35v24.93h57.11v22.1h-57.11v26.7h58.35v22.1h-83.46Z"/>
      <path d="M911.92,140.49l-56.23-76.91v76.91h-25.11V22.55h25.81l54.64,74.08V22.55h25.11v117.93h-24.22Z"/>
      <path d="M960.37,123.87l13.62-19.1c8.31,8.66,21.22,15.91,37.48,15.91,13.79,0,20.51-6.37,20.51-13.08,0-20.86-67.9-6.54-67.9-50.92,0-19.63,16.97-35.89,44.73-35.89,18.74,0,34.3,5.66,45.97,16.44l-13.97,18.39c-9.55-8.84-22.28-12.91-34.3-12.91-10.79,0-16.8,4.77-16.8,11.85,0,18.74,67.72,6.19,67.72,50.22,0,21.57-15.38,37.84-47.21,37.84-22.63,0-38.9-7.6-49.86-18.74Z"/>
      <path d="M1083.26,140.49V22.55h25.11v117.93h-25.11Z"/>
      <path d="M1134.89,81.61c0-36.25,27.41-61,62.77-61,25.99,0,41.02,14.15,49.33,28.82l-21.57,10.61c-4.95-9.55-15.56-17.15-27.76-17.15-21.39,0-36.95,16.44-36.95,38.72s15.56,38.72,36.95,38.72c12.2,0,22.81-7.43,27.76-17.15l21.57,10.43c-8.49,14.68-23.34,29-49.33,29-35.36,0-62.77-24.75-62.77-61Z"/>
  </g>
  <g fill="url(#trackerGradient)">
      <path d="M368.32,273.42v-72.52h-26.09v-16.73h71.19v16.73h-25.96v72.52h-19.13Z"/>
      <path d="M529.55,273.42l-17.53-31.71h-13.92v31.71h-19v-89.25h41.75c18.6,0,29.97,12.18,29.97,28.77s-9.9,24.22-19.54,26.49l20.07,33.99h-21.81ZM531.42,212.94c0-7.49-5.75-12.04-13.38-12.04h-19.94v24.09h19.94c7.63,0,13.38-4.55,13.38-12.04Z"/>
      <path d="M680.21,273.42l-5.49-15.12h-38.27l-5.62,15.12h-21.68l34.52-89.25h23.82l34.39,89.25h-21.68ZM655.59,203.17l-13.92,38.4h27.83l-13.92-38.4Z"/>
      <path d="M754.87,228.86c0-27.43,20.74-46.16,47.5-46.16,19.67,0,31.04,10.7,37.33,21.81l-16.32,8.03c-3.75-7.23-11.77-12.98-21.01-12.98-16.19,0-27.97,12.44-27.97,29.3s11.77,29.3,27.97,29.3c9.23,0,17.26-5.62,21.01-12.98l16.32,7.9c-6.42,11.11-17.66,21.94-37.33,21.94-26.76,0-47.5-18.73-47.5-46.16Z"/>
      <path d="M957.58,273.42l-27.03-35.73-6.96,8.3v27.43h-19v-89.25h19v39.87l31.58-39.87h23.42l-35.46,41.88,37.87,47.37h-23.42Z"/>
      <path d="M1043.21,273.42v-89.25h63.16v16.73h-44.16v18.87h43.22v16.73h-43.22v20.2h44.16v16.73h-63.16Z"/>
      <path d="M1225.18,273.42l-17.53-31.71h-13.92v31.71h-19v-89.25h41.75c18.6,0,29.97,12.18,29.97,28.77s-9.9,24.22-19.54,26.49l20.07,33.99h-21.81ZM1227.05,212.94c0-7.49-5.75-12.04-13.38-12.04h-19.94v24.09h19.94c7.63,0,13.38-4.55,13.38-12.04Z"/>
  </g>
</svg>
